<svg width="72" height="27" viewBox="0 0 72 27" fill="none" xmlns="http://www.w3.org/2000/svg">
<path fill-rule="evenodd" clip-rule="evenodd" d="M2.25631 15.5515L0 11.6435L2.63587 7.0993L7.88916 7.08865L10.1455 10.9967L14.354 10.9985L16.9563 15.5058L14.3054 20.0239L10.1118 20.048L7.99418 23.6677L2.75592 23.7044L0.153632 19.1971L2.25631 15.5515ZM13.4332 18.5126L15.2056 15.5093L13.4606 12.4869L9.97344 12.5201L8.38884 15.2414L10.2843 18.5243L13.4332 18.5126ZM7.122 22.1564L8.70659 19.4352L6.81119 16.1522L3.66223 16.1639L1.88986 19.1672L3.63484 22.1896L7.122 22.1564ZM6.96827 14.6026L8.74064 11.5992L6.99566 8.57683L3.5085 8.61007L1.73613 11.6134L3.4811 14.6358L6.96827 14.6026Z" fill="white"/>
<path d="M27.7837 20.216C27.0157 20.216 26.3857 20.096 25.8937 19.856C25.4017 19.604 25.0357 19.274 24.7957 18.866C24.5557 18.458 24.4357 18.008 24.4357 17.516C24.4357 16.688 24.7597 16.016 25.4077 15.5C26.0557 14.984 27.0277 14.726 28.3237 14.726H30.5917V14.51C30.5917 13.898 30.4177 13.448 30.0697 13.16C29.7217 12.872 29.2897 12.728 28.7737 12.728C28.3057 12.728 27.8977 12.842 27.5497 13.07C27.2017 13.286 26.9857 13.61 26.9017 14.042H24.6517C24.7117 13.394 24.9277 12.83 25.2997 12.35C25.6837 11.87 26.1757 11.504 26.7757 11.252C27.3757 10.988 28.0477 10.856 28.7917 10.856C30.0637 10.856 31.0657 11.174 31.7977 11.81C32.5297 12.446 32.8957 13.346 32.8957 14.51V20H30.9337L30.7177 18.56C30.4537 19.04 30.0817 19.436 29.6017 19.748C29.1337 20.06 28.5277 20.216 27.7837 20.216ZM28.3057 18.416C28.9657 18.416 29.4757 18.2 29.8357 17.768C30.2077 17.336 30.4417 16.802 30.5377 16.166H28.5757C27.9637 16.166 27.5257 16.28 27.2617 16.508C26.9977 16.724 26.8657 16.994 26.8657 17.318C26.8657 17.666 26.9977 17.936 27.2617 18.128C27.5257 18.32 27.8737 18.416 28.3057 18.416ZM34.7343 20V11.072H36.7863L37.0023 12.746C37.3263 12.17 37.7643 11.714 38.3163 11.378C38.8803 11.03 39.5403 10.856 40.2963 10.856V13.286H39.6483C39.1443 13.286 38.6943 13.364 38.2983 13.52C37.9023 13.676 37.5903 13.946 37.3623 14.33C37.1463 14.714 37.0383 15.248 37.0383 15.932V20H34.7343ZM45.0801 17.336C44.6481 17.336 44.2461 17.288 43.8741 17.192L43.2081 17.858C43.4121 17.966 43.6881 18.056 44.0361 18.128C44.3841 18.2 44.9481 18.272 45.7281 18.344C46.9161 18.452 47.7801 18.734 48.3201 19.19C48.8601 19.646 49.1301 20.276 49.1301 21.08C49.1301 21.608 48.9861 22.106 48.6981 22.574C48.4101 23.054 47.9661 23.438 47.3661 23.726C46.7661 24.026 45.9981 24.176 45.0621 24.176C43.7901 24.176 42.7641 23.936 41.9841 23.456C41.2041 22.988 40.8141 22.28 40.8141 21.332C40.8141 20.528 41.2041 19.832 41.9841 19.244C41.7441 19.136 41.5341 19.022 41.3541 18.902C41.1861 18.782 41.0361 18.656 40.9041 18.524V18.11L42.4701 16.454C41.7741 15.842 41.4261 15.056 41.4261 14.096C41.4261 13.496 41.5701 12.95 41.8581 12.458C42.1581 11.966 42.5781 11.576 43.1181 11.288C43.6581 11 44.3121 10.856 45.0801 10.856C45.5841 10.856 46.0521 10.928 46.4841 11.072H49.8681V12.476L48.3381 12.584C48.5781 13.04 48.6981 13.544 48.6981 14.096C48.6981 14.696 48.5541 15.242 48.2661 15.734C47.9781 16.226 47.5581 16.616 47.0061 16.904C46.4661 17.192 45.8241 17.336 45.0801 17.336ZM45.0801 15.572C45.5481 15.572 45.9321 15.446 46.2321 15.194C46.5441 14.942 46.7001 14.582 46.7001 14.114C46.7001 13.646 46.5441 13.286 46.2321 13.034C45.9321 12.782 45.5481 12.656 45.0801 12.656C44.5881 12.656 44.1921 12.782 43.8921 13.034C43.5921 13.286 43.4421 13.646 43.4421 14.114C43.4421 14.582 43.5921 14.942 43.8921 15.194C44.1921 15.446 44.5881 15.572 45.0801 15.572ZM42.9201 21.098C42.9201 21.542 43.1241 21.872 43.5321 22.088C43.9521 22.316 44.4621 22.43 45.0621 22.43C45.6381 22.43 46.1061 22.31 46.4661 22.07C46.8261 21.842 47.0061 21.53 47.0061 21.134C47.0061 20.81 46.8861 20.54 46.6461 20.324C46.4181 20.108 45.9561 19.976 45.2601 19.928C44.7681 19.892 44.3121 19.838 43.8921 19.766C43.5441 19.958 43.2921 20.168 43.1361 20.396C42.9921 20.624 42.9201 20.858 42.9201 21.098ZM55.1206 20.216C54.2566 20.216 53.4766 20.018 52.7806 19.622C52.0966 19.226 51.5506 18.68 51.1426 17.984C50.7466 17.276 50.5486 16.46 50.5486 15.536C50.5486 14.612 50.7526 13.802 51.1606 13.106C51.5686 12.398 52.1146 11.846 52.7986 11.45C53.4946 11.054 54.2746 10.856 55.1386 10.856C55.9906 10.856 56.7586 11.054 57.4426 11.45C58.1386 11.846 58.6846 12.398 59.0806 13.106C59.4886 13.802 59.6926 14.612 59.6926 15.536C59.6926 16.46 59.4886 17.276 59.0806 17.984C58.6846 18.68 58.1386 19.226 57.4426 19.622C56.7466 20.018 55.9726 20.216 55.1206 20.216ZM55.1206 18.218C55.7206 18.218 56.2426 17.996 56.6866 17.552C57.1306 17.096 57.3526 16.424 57.3526 15.536C57.3526 14.648 57.1306 13.982 56.6866 13.538C56.2426 13.082 55.7266 12.854 55.1386 12.854C54.5266 12.854 53.9986 13.082 53.5546 13.538C53.1226 13.982 52.9066 14.648 52.9066 15.536C52.9066 16.424 53.1226 17.096 53.5546 17.552C53.9986 17.996 54.5206 18.218 55.1206 18.218ZM61.3926 20V11.072H63.4266L63.6066 12.584C63.8826 12.056 64.2786 11.636 64.7946 11.324C65.3226 11.012 65.9406 10.856 66.6486 10.856C67.7526 10.856 68.6106 11.204 69.2226 11.9C69.8346 12.596 70.1406 13.616 70.1406 14.96V20H67.8366V15.176C67.8366 14.408 67.6806 13.82 67.3686 13.412C67.0566 13.004 66.5706 12.8 65.9106 12.8C65.2626 12.8 64.7286 13.028 64.3086 13.484C63.9006 13.94 63.6966 14.576 63.6966 15.392V20H61.3926Z" fill="white"/>
</svg>
